<svg xmlns="http://www.w3.org/2000/svg" aria-hidden="true" style="position:absolute;width:0;height:0;overflow:hidden"><defs><symbol id="icon-arrow-back" viewBox="0 0 32 32"><path stroke-linecap="round" stroke-linejoin="round" stroke-width="1.333" d="m20 24-8-8 8-8"/></symbol><symbol id="icon-arrow-left" viewBox="0 0 32 32"><path fill="#fff7ee" d="M16 .333C7.348.333.333 7.347.333 16S7.347 31.667 16 31.667 31.667 24.653 31.667 16 24.653.333 16 .333" style="fill:var(--color1, #fff7ee)"/><path fill="none" stroke="#ffc97a" stroke-width=".667" d="M16 .333C7.348.333.333 7.347.333 16S7.347 31.667 16 31.667 31.667 24.653 31.667 16 24.653.333 16 .333z" style="stroke:var(--color2, #ffc97a)"/><path fill="none" stroke="#2d4053" stroke-linecap="round" stroke-linejoin="round" stroke-width="1.333" d="M18.667 21.333 13.334 16l5.333-5.333" style="stroke:var(--color3, #2d4053)"/></symbol><symbol id="icon-arrow-right" viewBox="0 0 32 32"><path fill="#fff7ee" d="M16 .333C7.348.333.333 7.347.333 16S7.347 31.667 16 31.667 31.667 24.653 31.667 16 24.653.333 16 .333" style="fill:var(--color1, #fff7ee)"/><path fill="none" stroke="#ffc97a" stroke-width=".667" d="M16 .333C7.348.333.333 7.347.333 16S7.347 31.667 16 31.667 31.667 24.653 31.667 16 24.653.333 16 .333z" style="stroke:var(--color2, #ffc97a)"/><path fill="none" stroke="#2d4053" stroke-linecap="round" stroke-linejoin="round" stroke-width="1.333" d="M13.333 21.333 18.666 16l-5.333-5.333" style="stroke:var(--color3, #2d4053)"/></symbol><symbol id="icon-caret" viewBox="0 0 32 32"><path fill="#ff7f6a" d="M16 0c8.837 0 16 7.163 16 16s-7.163 16-16 16S0 24.837 0 16 7.163 0 16 0" style="fill:var(--color4, #ff7f6a)"/><path fill="none" stroke="#edddcb" stroke-linecap="round" stroke-linejoin="round" stroke-width="1.333" d="M9.333 12.667 16 19.334l6.667-6.667" style="stroke:var(--color5, #edddcb)"/></symbol><symbol id="icon-close" viewBox="0 0 32 32"><path stroke-linecap="round" stroke-linejoin="round" stroke-width="1.333" d="m8 8 7.667 7.667m0 0L8 23.334m7.667-7.667 7.667 7.667m-7.667-7.667L23.334 8"/></symbol><symbol id="icon-email" viewBox="0 0 32 32"><path fill="#c87d5e" d="M15.785 21.043h4.578V31h-4.578z" style="fill:var(--color6, #c87d5e)"/><path fill="#874d36" d="M20.363 23.558c-.41-.665-.953-1.232-1.637-1.602a3.6 3.6 0 0 0-1.372-.41h-.797c-.26.025-.52.075-.77.15v5.032c.223-.34.593-.585.992-.68.698-.163 1.438.105 2.003.543s.988 1.032 1.4 1.615l.185.26v-4.907z" style="fill:var(--color7, #874d36)"/><path fill="#4e342e" d="M7.235 7.242c2.965 0 5.378 2.005 5.378 4.473v11.9H1.855v-11.9c0-2.467 2.412-4.473 5.38-4.473" style="fill:var(--color8, #4e342e)"/><path fill="#fff7ee" d="M13.742 23.547h-8.96c-.532 0-.982-.392-1.055-.92l-1.26-9.158a.73.73 0 0 1 .723-.827h10.553v10.905z" style="fill:var(--color1, #fff7ee)"/><path fill="#1976d2" d="M24.387 6.272H7.234s5.895.723 5.895 5.695l.03 12.62h16.63c.668 0 1.207-.54 1.207-1.207V12.885a6.61 6.61 0 0 0-6.61-6.613z" style="fill:var(--color9, #1976d2)"/><path fill="#0d47a1" d="m20.869 8.502-2.035.07-2.963 4.545V9.43c0-1.97-2-3.16-2-3.16h7.79l.04.04c.817.777.295 2.152-.832 2.192" style="fill:var(--color10, #0d47a1)"/><path fill="#0d47a1" d="M18.551 15.805c1.124 0 2.035-1.025 2.035-2.29s-.911-2.29-2.035-2.29-2.035 1.025-2.035 2.29.911 2.29 2.035 2.29" style="fill:var(--color10, #0d47a1)"/><path fill="#c62828" d="m16.723 2.527.008 10.39c0 .35.282.633.633.633h1.277c.35 0 .633-.283.633-.633V.999h-1.025a1.54 1.54 0 0 0-1.079.447 1.52 1.52 0 0 0-.445 1.08z" style="fill:var(--color11, #c62828)"/><path fill="#f44336" d="m17.281 2.527.008 10.39h2.043V4.872h3.52c.813 0 .907-.353.907-1.888S23.666.999 22.854.999h-4.047a1.54 1.54 0 0 0-1.079.447 1.52 1.52 0 0 0-.445 1.08z" style="fill:var(--color12, #f44336)"/><path fill="#ff7555" d="M18.599 2.72c-.017.498-.343 5.003-.4 5.847-.07 1.023-.66 1.127-.66.197v-6.09c.003-.985 1.098-1.038 1.06.045z" style="fill:var(--color13, #ff7555)"/><path fill="#82aec0" d="m18.35 10.61.017 4.578h-1.035c-1.012 0-1.832-1.025-1.832-2.29s.82-2.29 1.832-2.29 1.018.002 1.018.002" style="fill:var(--color14, #82aec0)"/><path fill="#e0e0e0" d="M18.348 15.187c1.012 0 1.832-1.025 1.832-2.29s-.82-2.29-1.832-2.29-1.832 1.025-1.832 2.29.82 2.29 1.832 2.29" style="fill:var(--color15, #e0e0e0)"/><path fill="#fff7ee" d="M17.253 12.965c.11.055.242-.005.337-.085.29-.242.4-.643.668-.908.235-.235.593-.465.313-.813-.203-.25-.545-.207-.813-.092-.593.248-1.063 1.617-.505 1.898" style="fill:var(--color1, #fff7ee)"/><path fill="#4fc3f7" d="M7.235 7.308c2.942 0 5.338 1.99 5.338 4.438v11.805H1.898V11.744c0-2.445 2.395-4.435 5.338-4.435zm-.001-1.036C3.451 6.272 1 8.82 1 11.965v12.088c0 .293.238.532.532.532h12.023a.533.533 0 0 0 .533-.532V11.965c-.005-3.145-3.071-5.693-6.853-5.693z" style="fill:var(--color16, #4fc3f7)"/><path fill="#6fbff0" d="M4.421 22.875c-.147-.078-.025-.225.058-.36l3.342-5.823.658.4-3.72 5.595c-.095.145-.19.265-.338.188" style="fill:var(--color17, #6fbff0)"/><path fill="#6fbff0" d="m9.974 18.733-6.935-5.325c-.085-.057-.158-.162-.07-.268.07-.085.135-.04.257.033l6.72 4.63c.17.105.39.06.508-.1l2.005-2.715-.005 1.218-1.69 2.385a.58.58 0 0 1-.79.142" style="fill:var(--color17, #6fbff0)"/></symbol><symbol id="icon-experience1" viewBox="0 0 32 32"><path fill="#179cf5" d="M3.449 25.487c-.487 3.093 4.128 5.625 13.065 5.625S28.762 27.8 28.579 25.76c-.182-2.045-3.9-5.308-13.245-4.99-9.342.317-11.613 2.995-11.885 4.717" style="fill:var(--color18, #179cf5)"/><path fill="#f6c973" d="M6.669 24.225c.088.175.99.295 1.423.712.762.735.847 1.28 1.817 1.575.968.293 1.748-.202 2.89-.035 1.178.173 1.678.9 2.905.968 1.408.08 1.415-.903 3-1.02s1.803.42 3.083.057c1.26-.357 1.38-1.085 2.055-1.585s1.147-.62 1.147-.62-1.912-4.217-7.632-4.487c-6.198-.29-10.688 4.435-10.688 4.435" style="fill:var(--color19, #f6c973)"/><path fill="#eda052" d="M10.06 23.585s1.325.075 2.745-.237 2.73-.803 2.885-.505c.14.267-1.203 1.297-1.203 1.297s.625.453 2.013.305c1.387-.147 2.395-.677 2.89-.99s1.288-.795 2.345-1.06 1.675-.172 1.675-.172-1.29-1.355-2.567-1.69c-2.773-.728-3.528-.498-5.305.022-2.847.833-5.477 3.03-5.477 3.03z" style="fill:var(--color20, #eda052)"/><path fill="#dc8124" d="m17.896 9.295-1.805 1.207s1.435 1.668 1.85 3.968c.268 1.482.478 2.802.303 4.06-.073.512-.568 1.547-.71 1.895s-.348 1.167.287 1.332 2.705.225 3.01.185c.308-.04.67-.265.505-1.007-.102-.463-.277-1.903-.38-2.885s-.165-2.875-1.02-5.198c-.832-2.267-2.04-3.557-2.04-3.557" style="fill:var(--color21, #dc8124)"/><path fill="#c0711f" d="M19.556 19.267c.933.053 1.525-.125 1.525-.125l.128.945s-.57.16-1.645.095c-.938-.057-1.785-.315-1.785-.315l.35-.892c-.003-.003.487.237 1.427.292m-1.287-2.562.027.43c.008.167.013.425.013.425s.705.082 1.262.06c.913-.038 1.323-.255 1.323-.255s-.018-.203-.043-.443-.052-.44-.052-.44-.448.22-1.385.283a4.7 4.7 0 0 1-1.145-.06m-.36-2.393s.427.088 1.225-.085c.775-.167 1.107-.462 1.107-.462s.073.227.115.4c.04.162.103.4.103.4s-.313.307-1.163.475c-.832.165-1.247.052-1.247.052l-.068-.387a9 9 0 0 0-.072-.393" style="fill:var(--color22, #c0711f)"/><path fill="#a2672b" d="M17.471 12.842s.395.028 1.162-.262c.67-.253.958-.59.958-.59l-.943-2.07-2.26.82z" style="fill:var(--color23, #a2672b)"/><path fill="#728137" d="m17.599 10.27 3.81 1.438s.178-.505.265-.92c.058-.275.11-.755.228-.748.195.015.312.333.32.783.007.387-.095 1.067-.095 1.067l.81.248s.182-.38.3-.863c.122-.505.045-.817.172-.817.218 0 .378.405.358 1.025-.015.485-.125.885-.1.902.04.033.48.105.837.205s.573.128.573.128.58-2.755-1.213-3.945c-2.065-1.37-4.65-.33-4.65-.33l1.673-1.4s-.093-.293-.363-.723c-.15-.24-.402-.513-.462-.683-.043-.12.32-.16.802.13.385.232.92.7.93.708l.435-.317s-.03-.362-.2-.673c-.142-.263-.302-.537-.24-.572.128-.072.5.025.753.27.217.213.372.532.372.532l1.3-.83s-.9-1.413-2.855-1.343c-1.955.072-2.802 1.138-3.13 1.51-.327.37-.847 1.22-.847 1.22l.185-2.275s-.118-.155-.44-.255c-.32-.1-.608-.033-.613-.075-.022-.155.245-.422.685-.473.258-.03.498.01.498.01l.21-2.192s-2.388.048-3.145 2.2c-.65 1.85.552 3.547.332 3.712-.187.14-1.737-1.56-4.045-1.015-2.532.598-3.225 3.27-3.08 3.27.388 0 1.568.055 1.638 0 .035-.027.14-.355.37-.707s.822-.868 1.055-.77c.12.05-.045.262-.2.642-.155.393-.303.905-.303.905l1.085-.01s.37-1.252.813-1.345c.19-.04.017.31-.03.623-.048.322-.02.752-.02.752l1.695.1s-2.128.083-3.545 1.375c-1.468 1.338-1.625 2.698-1.513 3.878.08.84.25 1.422.33 1.512.063.073 1.128-1.132 1.17-1.232s-.072-.695-.072-1.265.127-.858.242-.87c.115-.015.085.4.173.757.09.373.227.685.285.713s.692-.8.692-.8-.07-.408-.107-.733c-.038-.327.035-.71.127-.775.103-.072.15.333.27.653.098.255.178.395.23.462l1.128-1.065s-.865 1.573-.733 3.188c.148 1.807 1.255 2.285 1.325 2.272.073-.015.88-1.775.88-1.775s-.252-.31-.472-.722c-.278-.52-.263-.988-.16-1.053.145-.092.357.485.57.743.215.257.357.362.402.362s.633-1.215.633-1.215-.175-.202-.313-.412c-.115-.178-.217-.485-.12-.668.105-.097.21.155.373.288.16.132.31.27.31.27z" style="fill:var(--color24, #728137)"/><path fill="#bdcf47" d="M17.897 11.195c.083-.055.245-1.158.325-1.708.07-.497.245-1.237-.132-1.312-.26-.05-.368.318-.45.71-.075.35-.185.827-.185.827s-.335-.642-.56-1.035c-.163-.282-.515-.88-.795-.702-.322.205.027.865.225 1.228s.42.787.42.787-.593-.202-.938-.31c-.377-.117-.885-.22-.955-.017-.122.355.345.532 1.25.902.9.37 1.658.72 1.795.63" style="fill:var(--color25, #bdcf47)"/><path fill="#a2672b" d="M15.298 19.157c-.623.078-1.093.6-.953 1.41s.973.933 1.438.855c.56-.095 1.16-.723.767-1.618-.262-.602-.87-.695-1.252-.648z" style="fill:var(--color23, #a2672b)"/><path fill="#0fcaff" d="M4.389 25.03c-.19-.15-.643.588.018 1.425.22.28.395.697.808.99.385.272.665.285 1.212.69.27.2.82.418.965.395.323-.047.38-.082.358-.17-.035-.127-.463-.28-.793-.572-.352-.313-.5-.848-.885-1.14-.468-.357-.688-.207-1.268-.82-.27-.282-.39-.777-.415-.797zm20.265 3.42c.082.153 1.262-.665 1.78-.94.517-.272 1.315-.352 1.532-1.295.14-.612-.32-1.215-.455-1.2-.137.015-.205.588-.502.973-.41.532-.943.622-1.428 1.077-.387.365-1.035 1.188-.927 1.385" style="fill:var(--color26, #0fcaff)"/><path fill="#76f8ff" d="M6.131 23.345c.147.185-.395.592-.305.927.213.623.548.455 1.383 1.11.805.628.7.958 1.322 1.458.503.405 1.185.73 2.203.652s1.297-.137 2.027-.047c1.233.155 1.18.64 2.47.942.583.138 1.155-.045 1.718-.38.507-.302 1.185-.667 2.172-.682s2.248.307 3.338-.123c.89-.352 1.1-.91 1.752-1.517s1.485-.665 1.64-1.185c.183-.608-.592-.943-.715-1.078-.122-.137-.107-.38.168-.365s1.625.563 1.535 1.58c-.07.778-.73 1.048-1.095 1.23-.23.115-.775.38-1.353 1.11s-.86 1.163-1.64 1.413c-.88.28-1.885.257-3.037.197a4.7 4.7 0 0 0-2.385.503c-.668.335-1.463.525-2.158.41-1.11-.183-1.505-.745-2.552-.928-1.003-.242-1.808.365-3.433-.167-1.255-.41-1.61-1.17-1.945-1.55s-.577-.745-1.367-1.095-.942-.865-.928-1.2c.027-.578.455-.898.623-1.048s.502-.242.563-.167z" style="fill:var(--color27, #76f8ff)"/></symbol><symbol id="icon-experience2" viewBox="0 0 32 32"><path fill="#fbc219" d="m1.799 5.167 1.712-.152 3.235 25.047s-.113.698-.763.763c-.763.075-.952-.648-.952-.648z" style="fill:var(--color28, #fbc219)"/><path fill="#e07f16" d="M.669 4.367c.157 1.29 1.313 1.68 2.085 1.628.857-.058 1.97-.72 1.828-2.112-.168-1.635-1.6-1.942-2.4-1.742C1.269 2.369.527 3.199.67 4.369z" style="fill:var(--color29, #e07f16)"/><path fill="#ffc020" d="M2.838 2.71c-.638-.455-1.427.115-1.655.688s-.058 1.027.255 1.285 1 .173 1.4-.315c.375-.455.6-1.228 0-1.657z" style="fill:var(--color30, #ffc020)"/><path fill="#016ba2" d="M7.607 7.995s1.027-1.658 3.055-3 4.255-2.313 8.197-2.257c2.685.04 4.255.24 5.855.257 2.655.027 4.3-.973 4.713-.315.57.915-1.585 3.5-1.543 4.255.058 1 2.885.685 2.913 1.742.02.715-1.57 2.513-3.998 3.113s-5.425.46-7.34.745c-1.912.285-5.285 1.375-6.382 1.725-1.603.512-5.47-6.265-5.47-6.265" style="fill:var(--color31, #016ba2)"/><path fill="#dde2e1" d="m6.5 9.49 1.258-1.738s.34.25.86.408 2.925.67 4.075 2.355c1.27 1.858.513 3.735.513 3.735s-1.038.492-2.875.76c-1.19.173-1.948-.042-1.948-.042S6.921 12.42 6.898 12.35c-.022-.07-.397-2.86-.397-2.86z" style="fill:var(--color32, #dde2e1)"/><path fill="#016ba2" d="M10.639 9.77c-.253-.103-.665.16-.698.877-.06 1.293 1.338 1.605 1.338 1.605s.165.7.64.995c.862.535 1.175.03 1.115-.177s-.358-.193-.625-.55c-.185-.248-.283-.773-.358-.878s-.625-.045-1.055-.772c-.305-.515-.21-1.04-.357-1.1m-3.835-.52c-.625.177-.788 1.66-.253 3.345.415 1.307 1.443 2.645 2.348 2.347.787-.257 1.01-1.665.297-3.462S7.571 9.03 6.804 9.25" style="fill:var(--color31, #016ba2)"/><path fill="#dde2e1" d="M7.162 9.965c-.26.065-.148 1.695.177 2.467s.98 1.843 1.353 1.68c.19-.085.162-1.352-.178-2.332-.342-.983-1.115-1.875-1.352-1.815" style="fill:var(--color32, #dde2e1)"/><path fill="#fff7ee" d="M13.411 6.348c-.915.527-1.072 1.817-.545 2.765.453.815 1.34 1.212 2.215.875.843-.325 1.198-1.595.723-2.658-.453-1.01-1.61-1.432-2.393-.982" style="fill:var(--color1, #fff7ee)"/><path fill="#2d2d2e" d="M13.789 7.155c-.552.328-.567 1.008-.285 1.508.31.547.998.547 1.365.32.433-.265.53-.828.31-1.33-.262-.593-.927-.77-1.39-.498" style="fill:var(--color33, #2d2d2e)"/><path fill="#f26d31" d="M9.474 18.772s1.088-1.738 3.603-2.645c3.825-1.38 7.412-1.108 10.057-1.168 4.615-.102 5.47-1.66 6.17-1.037.59.522-1.115 2.98-.985 3.94.073.537.31 1.01 1.038 1.217s1.6.313 1.685.7c.102.468-1.27 1.97-3.888 2.98-2.152.833-4.665.908-6.817 1.245-1.82.285-3.775.908-4.848 1.245-1.4.44-2.565.518-2.565.518s-2.385-6.17-2.462-6.248c-.08-.072-.988-.747-.988-.747" style="fill:var(--color34, #f26d31)"/><path fill="#dde2e1" d="M9.525 18.628s1.53-.093 2.897.887c1.27.91 2.728 2.708 2.665 4.378-.035.952-.6 1.63-.6 1.63s-.917.38-2.362.295c-1.795-.105-2.305-.763-2.305-.763L8.382 21.29s.128-1.247.445-1.735c.318-.482.698-.927.698-.927" style="fill:var(--color32, #dde2e1)"/><path fill="#f26d31" d="M8.244 22.817c.337 1.39 1.392 2.695 2.237 2.498.78-.183 1.053-1.373.598-3.175-.443-1.758-1.25-2.823-2.255-2.583-.943.23-.88 2.025-.58 3.26" style="fill:var(--color34, #f26d31)"/><path fill="#dde2e1" d="M9.041 20.372c-.352.105-.275 1.193-.025 2.225.183.755.638 1.965 1.055 1.86s.273-1.417.078-2.172c-.198-.755-.675-2.043-1.108-1.913" style="fill:var(--color32, #dde2e1)"/><path fill="#f26d31" d="M12.175 20.488c-.532 0-.405 1.095-.065 1.64.455.728 1.015.885 1.015.885s.123.698.548 1.17c.22.248.552.428.69.338.15-.098-.018-.53-.143-1.028a6.3 6.3 0 0 1-.195-1.067s-.637-.378-.962-.833-.365-1.105-.888-1.105" style="fill:var(--color34, #f26d31)"/><path fill="#f8fffd" d="M14.831 18.055c-.875.532-.91 1.782-.235 2.772.677.99 1.77.95 2.355.613s.962-1.523.3-2.668c-.6-1.035-1.758-1.12-2.42-.717" style="fill:var(--color35, #f8fffd)"/><path fill="#2d2d2e" d="M15.404 18.693c-.468.208-.573 1.08-.17 1.613s.95.545 1.25.312c.467-.365.392-1.027.17-1.43-.263-.467-.825-.682-1.25-.495" style="fill:var(--color33, #2d2d2e)"/><path fill="#b6ced5" d="M3.49 14.098c-.63 0-.953-.235-.993-.263q-.06-.045-.096-.11a.38.38 0 0 1 .029-.416.374.374 0 0 1 .525-.067s.212.137.683.1c.545-.043.887-.26.89-.263l.067-.035 3.185-1.252c.192-.075.41.02.487.212a.38.38 0 0 1-.212.488l-3.152 1.24c-.133.08-.565.31-1.208.36q-.106.004-.205.005zM5.073 24.54c-.655 0-1.093-.222-1.14-.247a.375.375 0 0 1 .35-.664s.32.16.79.16c.405 0 .718-.35.72-.355l.067-.078.1-.035 3.5-1.157a.375.375 0 1 1 .237.71l-3.412 1.127c-.175.178-.617.54-1.213.54z" style="fill:var(--color36, #b6ced5)"/><path fill="#39bde3" d="M18.276 8.818c-.345.207.13.652-.015 2.002-.125 1.175-1.043 2.21-1.043 2.21s.6-.167.93-.235c.333-.07.87-.18.87-.18s.305-.635.318-1.727c.017-1.05-.528-2.39-1.06-2.07m.568-3.523c-.042.077.11.47.208.857s.16.92.277.968c.165.07.978-.392.733-1.27-.265-.942-1.135-.707-1.218-.555m2.1 1.078c-.192.22.083.51.18.897s.12.795.235.843c.165.07.968-.333.815-1.12-.185-.955-1.117-.75-1.23-.62m-.613-2.398c-.12.242.13.505.225 1.003.075.393.132.89.247.94.165.07 1.048-.487.8-1.367-.26-.94-1.197-.73-1.272-.575zm2.403 1.078c-.042.077.11.47.208.857s.16.92.277.968c.165.07.978-.393.733-1.27-.265-.94-1.135-.705-1.218-.555m1.312-1.16c-.038.08.13.627.225 1.015.097.388.187.822.305.87.165.07.967-.428.76-1.383-.208-.95-1.175-.743-1.29-.502m.718 2.257c-.047.082.16.605.268 1.01.107.408.147.845.275.905.25.118 1.13-.422.82-1.335-.28-.827-1.27-.74-1.363-.58m-1.513 1.245c-.043.085.165.46.29.925.112.42.167 1.003.282 1.055.165.078 1.02-.34.783-1.302-.258-1.03-1.273-.843-1.355-.678m-3.757.263c-.042.077.098.552.193.94.097.387.155.83.272.877.165.07.955-.385.733-1.27-.19-.755-1.115-.7-1.198-.547m2.052 1.207c-.12.215.102.478.197.863.098.387.173.905.285.96.24.117.978-.415.82-1.208-.187-.955-1.217-.765-1.302-.615m3.765-.095c-.043.075.105.548.232.918s.27.792.39.83c.17.055 1.028-.59.73-1.438-.265-.745-1.245-.497-1.352-.31" style="fill:var(--color37, #39bde3)"/><path fill="#fec516" d="M20.176 19.285c-.04.08.125.47.237.877.105.388.228.84.345.885.168.065.968-.417.703-1.295-.285-.937-1.205-.622-1.285-.467m1.392-1.365c-.042.077.198.507.328.862.137.375.16.92.277.968.165.07.858-.338.648-1.225-.213-.903-1.17-.758-1.253-.605m-2.04-1.037c-.045.085.135.5.25.91.118.41.18.768.288.855.282.225 1.095-.177.84-1.177-.258-1.015-1.29-.753-1.378-.588m1.513-1.358c-.165.117.08.475.15.867s.075.85.192.895c.338.128 1.068-.075.888-1.112-.17-.97-1.088-.75-1.23-.65m2.017 1.198c-.057.268.243.37.415.893.15.457.118.772.238.81.365.112 1.162-.525.867-1.28-.35-.903-1.482-.603-1.52-.423m1.608-1.148c-.043.077.082.345.255.815.137.375.16.92.277.967.165.07.95-.387.705-1.267-.265-.94-1.155-.668-1.237-.515m.715 2.325c-.043.077.127.445.225.765.115.382.102.795.28.915.267.182 1.042-.37.76-1.24-.26-.808-1.18-.593-1.265-.44m-1.48 1.113c-.043.078.095.478.16.875.07.443.067.835.18.888.267.127 1.16-.205.942-1.155-.215-.94-1.2-.758-1.282-.608m2.065 1.152c-.043.077.11.47.207.857s.175.75.275.825c.225.17 1.015-.225.805-1.14-.22-.952-1.205-.695-1.287-.542m-3.745.1c-.12.162.15.532.197.93.058.465.07.817.183.872.322.155 1.202-.352.902-1.237-.305-.91-1.18-.705-1.282-.565m-4.02 4.198s.867-.965.847-1.687c-.027-1.083-.337-1.618.085-1.773.35-.127.733.438.873 1.043.337 1.455.015 2.025.015 2.025s-.533.115-.945.197c-.353.068-.875.195-.875.195" style="fill:var(--color38, #fec516)"/></symbol><symbol id="icon-experience3" viewBox="0 0 32 32"><path fill="#1f87fd" d="M3 19.875s-.025.125-.075.75-.125 1.4 0 1.475 1.475-.575 1.475-.575L5 20.5s-.225-.4-.6-.6c-.2-.1-.425-.15-.425-.15z" style="fill:var(--color39, #1f87fd)"/><path fill="#7ab9ff" d="M3.624 19.725c-.35-.025-.65.175-.65.175s.525.5.65.6.35.225.425.025.1-.675.1-.675-.1-.1-.525-.125" style="fill:var(--color40, #7ab9ff)"/><path fill="#0868d4" d="M3.999 20.75c-.125.05-1.075 1.375-1.075 1.375s.05.25.425.15c.375-.125 1.475-.65 1.475-.65l-.125-.875z" style="fill:var(--color41, #0868d4)"/><path fill="#5e6367" d="M6.35 13.225s-1.925.5-2.025.575-.2.175-.175.325.45 5.2.475 6.075.15 2.2.15 2.375.1.325.325.425 1.35.575 1.45.625.325.025.425-.05.325-.15.325-.15l8.5 3.65s-.075.4.05.525 1.4.65 1.55.65.45-.45.45-.45l-.15-9.875z" style="fill:var(--color42, #5e6367)"/><path fill="#464c4f" d="M13.151 1.5s.025-.225-.15-.325c-.175-.125-1.1.2-1.1.2l-1.8 1.05L8.276 5.05l1.375.8 4.1-3.75z" style="fill:var(--color43, #464c4f)"/><path fill="#d27857" d="M10.826 2.75c1.225-1.075 2.2-1.35 2.2-1.35l3.9.8 6.525 2-3 1.9-2.7 2.95-8.8-3.25s.675-1.975 1.875-3.05" style="fill:var(--color44, #d27857)"/><path d="M10.826 2.75c1.225-1.075 2.2-1.35 2.2-1.35l3.9.8 6.525 2-3 1.9-2.7 2.95-8.8-3.25s.675-1.975 1.875-3.05" style="fill:var(--color45, #000)"/><path fill="#51362f" d="m5.151 14.075 1.35-.375-.075.85z" style="fill:var(--color46, #51362f)"/><path fill="#474d50" d="M5.974 21.375c-.1.025-.275.025-.275-.175 0-.1-.35-4.925-.35-5.1s.025-.4.175-.4.475.25.475.25l.925 4.675c.025 0-.85.7-.95.75m6.15 2.225s-.275.275-.4.275c-.1 0-.3-.025-.3-.425s.025-5.025.025-5.025l.6-.325 1.4 4.7z" style="fill:var(--color47, #474d50)"/><path fill="#d27857" d="M6.125 21.275 9.75 22.9v-5.525l-4-1.575z" style="fill:var(--color44, #d27857)"/><path d="M6.125 21.275 9.75 22.9v-5.525l-4-1.575z" style="fill:var(--color45, #000)"/><path fill="#d27857" d="m16.051 25.6-4.15-1.8.05-5.525 4.25 1.575z" style="fill:var(--color44, #d27857)"/><path d="m16.051 25.6-4.15-1.8.05-5.525 4.25 1.575z" style="fill:var(--color45, #000)"/><path fill="#ab5832" d="m11.601 18.625 5.175 1.975-.7-2.475-4.75-.55z" style="fill:var(--color48, #ab5832)"/><path fill="#51362f" d="m7.576 6.65 4.25 3.025.65 1.75 9.025 2.125 2.825-.3-4.25-3.7-12.3-3.375z" style="fill:var(--color46, #51362f)"/><path fill="#464c4f" d="m17.824 2.375.575.125s.375.15.325.25c-.025.05-1.625.3-2.525 1.375s-1.575 2.7-1.575 2.7l-.525-.675 1.775-2.625z" style="fill:var(--color43, #464c4f)"/><path fill="#5e6367" d="M7.35 4.875s-.375-.025-.575.5-.125.9.1 1.1c.2.2.7.325 1.425.5.7.2 10.625 3.475 10.625 3.475L19.8 9.2 25.75 5s-.575-.4-1.175-.625c-.325-.125-1.05-.35-1.25-.35S21.65 4 20.2 5.4c-1.45 1.425-1.925 2.65-1.925 2.65L14.25 6.8s.775-2.25 1.9-3.275c1.2-1.05 2.325-1 2.325-1s-.375-.2-.8-.325c-.45-.125-.875-.125-1.075-.1s-1.55.525-2.575 1.875c-.825 1.075-1.225 2.3-1.225 2.3S9.05 5.1 8.9 5c-.15-.075.2-.7.375-1.05s1-1.4 1.55-1.85c.775-.6 2.05-1 2.05-1S12.1.95 11.6 1c-.65.075-1.625.45-2.5 1.35a10.2 10.2 0 0 0-1.75 2.525" style="fill:var(--color42, #5e6367)"/><path fill="#464c4f" d="M17.376 28.3s1.35-.575 1.425-.625c.05-.05.025-.275.025-.275l5.375-2.55s-.025.325.125.325.475-.125.85-.35.875-.55.875-.55l.9-9.15s.25-.25.475-.65.25-.875.25-.875 2.525-5.725-.75-7.975C23.251 3.1 20.001 7.5 19.501 8.85c-.3.85-.625 1.6-.625 1.6s7.525 4.2 7.525 4.4-9.25 3.35-9.25 3.35l.15.325z" style="fill:var(--color43, #464c4f)"/><path fill="#ab5832" d="m20.151 8.85 7.175 4.425s2.6-6.2-1.2-7.575c-3.75-1.35-5.975 3.15-5.975 3.15" style="fill:var(--color48, #ab5832)"/><path fill="#ffb803" d="M11.275 7.8c-.05.125-.15.5.05.575.525.2.65.275 1.2.45.725.25 1.125.375 1.375.425.275.075.425-.075.475-.25.05-.15.3-.7.5-1.375.225-.775.225-1.725-.925-2.15-1.15-.4-1.925.35-2.25 1.2-.225.6-.4 1.075-.425 1.125" style="fill:var(--color49, #ffb803)"/><path fill="#ff8e00" d="M13.401 6.4c-.5-.225-1.125.175-1.225.75-.1.6.325.925.725 1 .5.1.85-.2.975-.65.15-.575-.025-.925-.475-1.1" style="fill:var(--color50, #ff8e00)"/><path fill="#ec8717" d="m8.175 13-2.05 1.35.125.125S16.575 18.4 17 18.4s1-.225 1.35-.35c.3-.1 6.775-2.65 8-3.175.125-.05.1-.15.025-.2s-3.35-1.95-3.35-1.95-.4.1-.575.225-.325.275-.325.275-.1-.15-.2-.175-.275-.075-.275-.075.2-.475-.25-.9-.825-.25-.825-.25.025-.225-.025-.5c-.4-.2-1.525-.875-1.65-.925s-1.375-.475-1.9-.6a1.4 1.4 0 0 0-.425.125c-.575.35-.475.675-.475.675l-1.55-.05z" style="fill:var(--color51, #ec8717)"/><path fill="#ffa826" d="M23.775 14.15s-.075-.225.375-.125c.45.075.45.15.7.15s.425-.1.425-.1l.475.275s.075.325-.5.45-1.25-.125-1.25-.125zm-2.85-1.025c-.2-.05-.275.625-.5.8s-.725.175-.7.45.7.35 1.15.025c.4-.3.55-1.15.05-1.275m-2.85 1.7c-.375.2-.675.625-.55.85.1.225.625.2 1-.1s.75-.4.6-.725c-.175-.325-.775-.175-1.05-.025m-.375 1.3c-.2.025-.5-.125-.625.025s.1.775.625.7.9-.725.65-.875c-.25-.125-.475.125-.65.15" style="fill:var(--color52, #ffa826)"/><path fill="#ffa826" d="M6.124 14.35s.8.15 1.075.275 2.175.875 2.4.875c.25.025 1.05-.05 1.05-.05s.2.425.975.7c.775.25 1.675.075 1.675.075s.25.3.55.4c.3.075.55.1.55.1s.4.525 1.225.75 1.175-.025 1.325-.175c.175-.15.125-.425.125-.425l-1.1-.75s-.375-.175-.25-.3.3 0 .3 0l1.05-2.925s-.35.025-.65-.3-.425-.775-.425-.775l-.275.275s.3.6.2 1-.35.725-.35.725.15.275-.15.875-.65 1.3-.95 1.4-.625.1-.875-.025c-.275-.125-.5-.375-.5-.375v-1.875s-.25-.025-.35-.025-.15-.125-.15-.225.075-.175.275-.175 1.075.025 1.375.025c.275-.025.5-.425.5-.425l-1.6-1.3s-.275-.1-.175-.3c.125-.2.375-.125.375-.125l-.075-1.05s-.25-.1-.575-.175c-.325-.05-.4-.05-.4-.05s0-.275-.275-.475c-.275-.175-1.875-.025-1.875-.025s-.375.225-.5.55-.1.55-.1.55-.525 0-.65.075-.775.3-.925.45-.15.3-.15.3-1.075 0-1.5.7c-.4.65.025 1.075.025 1.075s-.325.125-.375.6c-.025.35.15.55.15.55" style="fill:var(--color52, #ffa826)"/><path fill="#fcc219" d="M14.575 16.425c-.1.4.925.725 1.175.775.275.05 1.225.05 1.275-.3s-.525-.675-1.15-.775c-.6-.1-1.2-.025-1.3.3M8.7 14.075c.05.225-.225.6-1.1.6-.825-.025-1.15-.275-1.125-.6s.55-.425 1.075-.45 1.075.125 1.15.45m.2.525c-.075.375.45.875 1.5.75s1.275-.775 1-1.125c-.3-.4-.95.125-1.275.125-.225 0-.675-.2-.975-.1-.1.025-.225.2-.25.35" style="fill:var(--color53, #fcc219)"/><path fill="#ec8717" d="M9.249 13.975s.05.4.65.375.825-.325.925-.5.2-.5.2-.5.55-.025.825-.35.25-.725.125-1.025-.375-.6-.375-.6-1.275-.25-1.375-.25c-.1-.025-.2.175-.3.325s-.275.275-.45.35-.55.05-.525.325.45.275.75.2.625-.25.625-.25l.15.725z" style="fill:var(--color51, #ec8717)"/><path fill="#fcc219" d="M6.374 12.1c-.175.375.025.85 1.025 1.075s1.45-.075 1.475-.375-.275-.8-1.075-.975c-.625-.15-1.25-.1-1.425.275m1.5-.75c.075.3.625.525 1.25.35s.8-.45.7-.75-.6-.35-1.125-.275c-.5.1-.9.375-.825.675m1.95-1.375c0 .4.425.775 1.425.55.975-.225 1.025-.75.9-1-.125-.275-.55-.425-1.25-.325-.525.075-1.05.25-1.075.775m1.775.925c-.05.2.2.55.75.3s.6-.8.35-.875c-.3-.075-.325.2-.5.3s-.5 0-.6.275m3.65.65c.3-.15.45-.525.525-.8.1-.275.175-.6.05-.725-.15-.125-.45-.15-.7-.175-.175-.025-.75-.125-1.025-.175-.25-.05-.55.05-.7.275s-.325.775-.35.9-.1.375.275.475 1.575.375 1.925.225m-2.475.425c-.075.325-.2.825-.2.925-.025.15.05.3.375.325s1.525.225 1.725.25c.225.025.475.05.525-.325.05-.35.05-.725.05-.9 0-.2-.15-.275-.375-.325-.15-.025-.95-.15-1.475-.2-.225-.025-.55-.05-.625.25m-1.7 3.6c.025.175.6.525 1.15.225s.275-1 .175-1.1-.2-.1-.275 0c-.05.1-.1.5-.325.625-.2.125-.75.05-.725.25m1.925.1c.125.1.3.2.575.175s.5 0 .65-.15.725-1.05.8-1.275.075-.45-.15-.5-1.675-.125-1.8-.125-.25.15-.275.375.05 1.375.2 1.5" style="fill:var(--color53, #fcc219)"/><path fill="#ff2a23" d="M13.801 14.2c-.275 0-.475.175-.45.425s.175.4.45.4.4-.2.4-.4-.125-.425-.4-.425m-.325-1.675c-.025.225.1.5.425.5s.475-.225.45-.4-.1-.4-.425-.425c-.25-.025-.425.2-.45.325m.5-2.075c-.075.3.2.5.425.525.275.025.5-.1.55-.375.05-.3-.15-.5-.45-.5-.3-.05-.475.15-.525.35" style="fill:var(--color54, #ff2a23)"/><path fill="#feeac8" d="M22.151 13.9s.075-.475.575-.425.55.5.475.675c-.1.25-.325.325-.525.325-.35 0-.475-.325-.475-.325s-.075.325-.4.3c-.325 0-.4-.275-.4-.45 0-.1.125-.35.425-.35.175.025.325.25.325.25m2 .4c-.15-.2-.5-.325-.775-.1-.225.175-.3.55-.1.8.225.25.575.25.75.1.175-.175.35-.5.125-.8" style="fill:var(--color55, #feeac8)"/><path fill="#feeac8" d="M23.974 15.075c-.2.125-.275.425-.15.675.1.225.425.35.7.2.2-.1.3-.45.175-.7-.125-.225-.5-.325-.725-.175" style="fill:var(--color55, #feeac8)"/><path fill="#ff2a23" d="M11.551 11.075c-.075-.025-1.075-.025-1.15-.025s-.2.05-.225.175.075 1.45.075 1.5.05.15.25.15.95-.125.975-.125.075-1.675.075-1.675" style="fill:var(--color54, #ff2a23)"/><path fill="#ffc0a6" d="M11.026 11.4c.025.125-.125.275-.15.375s-.025.525-.075.575-.125.125-.2.125c-.1 0-.2-.125-.2-.325v-.7c0-.1.125-.25.25-.25.1 0 .35.025.375.2" style="fill:var(--color56, #ffc0a6)"/><path fill="#d3100a" d="M11.076 11.775c0 .125.4 1 .4 1s.225 0 .275-.1-.05-1.45-.125-1.525c-.05-.075-.1-.075-.1-.075s-.45.575-.45.7" style="fill:var(--color57, #d3100a)"/><path fill="#02ab47" d="M9.676 12.7c-.425.05-.975.3-.875.825s.75.65 1.05.575c.325-.075.9-.4.825-.9-.1-.525-.8-.5-1-.5" style="fill:var(--color58, #02ab47)"/><path fill="#76ff8b" d="M9.326 13.05c-.15.025-.275.15-.3.3s.15.3.35.25.275-.25.225-.4c-.025-.05-.15-.175-.275-.15" style="fill:var(--color59, #76ff8b)"/><path fill="#ff2a23" d="m19.949 11.975-.775.925.625.5 1-.725s-.15-.2-.375-.4-.475-.3-.475-.3" style="fill:var(--color54, #ff2a23)"/><path fill="#ffbfa5" d="M19.1 12.85s-.025-.075.025-.15.725-.7.775-.725c.025-.025.075 0 .1.05.025.075.025.45 0 .525s-.15.15-.225.2c-.075.025-.575.225-.575.225z" style="fill:var(--color60, #ffbfa5)"/><path fill="#d3100a" d="M20.199 12.675c-.075.05-.45.5-.475.575-.025.05-.05.25-.05.25l.075-.05s.125.05.25-.025c.1-.05.75-.475.8-.525s0-.2 0-.2-.5-.1-.6-.025" style="fill:var(--color57, #d3100a)"/><path fill="#1f87fd" d="m16.451 11.425.025.175.475 1.475s1.775-.45 1.8-.625c.025-.075-.075-.55-.15-.875-.05-.25-.175-.575-.175-.575z" style="fill:var(--color39, #1f87fd)"/><path fill="#7ab9fe" d="M17.526 12.25c.05-.125.05-.3-.15-.4a70 70 0 0 0-.925-.325l.225.75c.075.25.225.65.225.65s.55-.55.625-.675" style="fill:var(--color61, #7ab9fe)"/><path fill="#0868d4" d="M16.449 11.425s-.05-.125.225-.25.775-.25 1.05-.275.525-.025.625.025.075.125.075.125-.325.35-.475.525-.2.25-.35.25c-.15-.025-1.15-.4-1.15-.4" style="fill:var(--color41, #0868d4)"/><path fill="#fcc219" d="M16.549 16.05c.475-.05.525-.275.55-.7.025-.4.325-.825.825-1.1s1.2-.125 1.375-.125.5-.15.5-.425c.025-.275-.05-.525-.65-.9-.625-.375-1.775-.325-2.625.425s-1.075 1.65-.775 2.325c.15.375.625.5.8.5" style="fill:var(--color53, #fcc219)"/><path fill="#ffa826" d="M16.476 15.675c.1 0 .175-.1.225-.325.05-.175.2-.9.75-1.375.5-.425 1.175-.35 1.325-.35.15.025.45.075.45-.125s-.225-.25-.45-.275-1.125-.1-1.75.575c-.55.625-.675 1.25-.7 1.45 0 .25 0 .425.15.425" style="fill:var(--color52, #ffa826)"/><path fill="#ff8e00" d="M10.25 18.725s1.275.525 1.775-.275c.525-.8.45-1.675.375-1.775s-2.675-1.1-2.8-1.1-.325.025-.35.2v.525z" style="fill:var(--color50, #ff8e00)"/><path fill="#ffb803" d="M11.725 17.225 9.25 16.2s0 1.25.3 1.85 1.075 1.05 1.6.625.575-1.45.575-1.45" style="fill:var(--color49, #ffb803)"/><path fill="#ab5832" d="m18.549 25.8.075-6.225 6.5-2.55-.425 5.95z" style="fill:var(--color48, #ab5832)"/><path fill="#fcc219" d="M19.275 15.65c-.2-.15-1.4.75-.675 2.75.425 1.15 1.425 1.825 2.425 1.65 1.325-.225 1.875-1.675 1.9-2.45.025-1.05-.275-1.8-.75-2.25s-.925-.375-.975-.225c-.05.125 1.025.725 1 2.15 0 1.075-.6 1.825-1.3 1.95-.575.1-1.15-.125-1.575-1-.75-1.55.25-2.325-.05-2.575" style="fill:var(--color53, #fcc219)"/><path fill="#feeac8" d="M24.249 16.1c-.3.025-.525.275-.5.625s.3.45.3.45-.275.15-.3.475c-.025.35.25.475.25.475s-.4.05-.45.45.275.525.275.525-.35 0-.5.3c-.2.425.175.675.175.675s-.425-.125-.625.175c-.175.225-.075.55-.075.55s-.15-.2-.375-.2c-.25-.025-.425.15-.425.15s.025-.3-.2-.475c-.25-.2-.475-.125-.475-.125s.3-.175.225-.55c-.075-.35-.35-.45-.35-.45s.275-.175.125-.575c-.125-.325-.45-.4-.45-.4s.45-.125.4-.625c-.025-.425-.4-.55-.4-.55s.4-.275.3-.725c-.125-.45-.55-.5-.55-.5s.275-.275.125-.65-.55-.325-.65-.3c-.275.05-.45.25-.425.625.05.35.45.425.45.425s-.3.225-.25.65c.05.35.425.475.425.475s-.35.2-.3.65.45.5.45.5-.375.225-.3.675c.075.4.425.4.425.4s-.275.35-.1.75c.175.375.525.275.525.275s-.325.475.075.825c.35.275.7.025.7.025s-.1.7.575.725c.675 0 .625-.7.625-.7s.55.25.825-.2c.25-.4-.075-.775-.075-.775s.65.1.65-.45c0-.475-.325-.55-.325-.55s.5.05.55-.45c.025-.425-.25-.525-.25-.525s.425-.075.475-.475-.3-.55-.3-.55.325-.025.35-.525c.025-.35-.325-.55-.625-.525" style="fill:var(--color55, #feeac8)"/><path fill="#ffa826" d="M9.1 24.775s-.1.1-.1.425.275.775 1.275.8 1.35-.3 1.4-.65c.05-.45-.125-.475-.125-.475z" style="fill:var(--color52, #ffa826)"/><path fill="#fcc219" d="M10.301 25.55c.55.025 1.35-.05 1.35-.475s-.875-.625-1.375-.625c-.65 0-1.25.2-1.25.475s.525.6 1.275.625" style="fill:var(--color53, #fcc219)"/><path fill="#ffa826" d="M9.7 26.225s-.275.25-.225.7c.025.475.6.9 1.4.9 1.05 0 1.55-.325 1.575-.825s-.225-.7-.225-.7z" style="fill:var(--color52, #ffa826)"/><path fill="#fcc219" d="M10.925 27.275c.95-.05 1.35-.375 1.35-.775s-1-.625-1.375-.575-1.275.025-1.275.525.775.85 1.3.825" style="fill:var(--color53, #fcc219)"/><path fill="#ffa826" d="M5.15 24.35s-.2.175-.225.6c-.025.4.45.9 1.4.85s1.3-.425 1.325-.725c.025-.475-.25-.675-.25-.675z" style="fill:var(--color52, #ffa826)"/><path fill="#fcc219" d="M6.249 25.325c.65.025 1.375-.225 1.275-.75C7.399 24 6.599 24 6.249 24c-.325 0-1.175.05-1.225.625-.025.575.7.675 1.225.7" style="fill:var(--color53, #fcc219)"/><path fill="#02ab47" d="m13.25 25.825-.5 1.9s.35.2 1.075.375c.35.075 1.225.25 1.375.2s.4-1.85.4-1.85-.575-.275-1.175-.425c-.8-.225-1.175-.2-1.175-.2" style="fill:var(--color58, #02ab47)"/><path fill="#76ff8b" d="M12.774 27.725c-.15-.05-.05-.55.05-.875s.325-1.05.425-1.05.725.75.7 1c-.025.275-1.025.975-1.175.925" style="fill:var(--color59, #76ff8b)"/><path fill="#006f2e" d="M14.374 27.025c-.075.2.225.525.3.625.1.1.425.6.525.625s.225-.525.3-.95.225-.85.1-.9c-.1-.05-.525.175-.65.25s-.5.15-.575.35" style="fill:var(--color62, #006f2e)"/><path fill="#d6f100" d="M13.151 29.2c-.1.1-.125.325-.05.45s.625 1.325.9 1.325 1.9-.275 2.025-.4c.125-.1.3-.275.25-.475s-.5-1.125-.8-1.3c-.325-.15-2.05.175-2.325.4" style="fill:var(--color63, #d6f100)"/><path fill="#fff7ee" d="M13.45 29.325c-.1.125.325 1 .475 1 .325-.025.225-.35.45-.575s.5-.375.4-.55c-.175-.3-1.225-.025-1.325.125" style="fill:var(--color1, #fff7ee)"/><path fill="#ec8816" d="M22.475 26.925s-.1.85 1.4.9c1.55.05 1.675-1.075 1.2-1.425-.325-.225-2.6.525-2.6.525" style="fill:var(--color64, #ec8816)"/><path fill="#fcc219" d="M24.299 27.175c.975-.2.775-.775.775-.775s-.375-.475-1.45-.35-1.15.875-1.15.875.5.525 1.825.25" style="fill:var(--color53, #fcc219)"/><path fill="#ec8816" d="M25.426 25.675s-.4 1.075 1.5 1.05c.675 0 1.1-.225 1.225-.5.175-.375-.05-.85-.15-.875-.2-.075-2.125-.05-2.3.05-.175.075-.225.125-.275.275" style="fill:var(--color64, #ec8816)"/><path fill="#fcc219" d="M26.825 26.25c.9-.05 1.375-.325 1.3-.725s-.85-.525-1.3-.525-1.35.2-1.375.65c-.075.45.85.625 1.375.6" style="fill:var(--color53, #fcc219)"/><path fill="#ec8816" d="M21.575 28.425s-.2.05-.2.45.35.775 1.55.8c2 0 1.475-1.25 1.25-1.4-.175-.125-2.6.15-2.6.15" style="fill:var(--color64, #ec8816)"/><path fill="#fcc219" d="M22.901 29.1c.925 0 1.4-.25 1.4-.6s-.7-.55-1.425-.55-1.4.25-1.425.6.75.55 1.45.55" style="fill:var(--color53, #fcc219)"/></symbol><symbol id="icon-features1" viewBox="0 0 32 32"><path fill="#dc8124" d="m18.012 12.93-2.595 1.738s2.062 2.397 2.657 5.7c.385 2.13.688 4.03.435 5.835-.102.737-.815 2.225-1.02 2.725s-.5 1.677.413 1.912c.912.235 3.885.325 4.327.265s.965-.38.728-1.447c-.148-.663-.398-2.735-.545-4.148s-.238-4.132-1.468-7.472c-1.197-3.25-2.932-5.108-2.932-5.108" style="fill:var(--color21, #dc8124)"/><path fill="#c0711f" d="M20.399 27.265c1.34.078 2.19-.18 2.19-.18l.183 1.358s-.82.232-2.363.135c-1.347-.085-2.565-.453-2.565-.453l.503-1.282c-.003-.003.702.345 2.052.422m-1.85-3.683s.025.377.038.615c.012.24.017.61.017.61s1.013.117 1.813.085c1.31-.053 1.9-.365 1.9-.365s-.023-.293-.06-.638c-.035-.347-.078-.632-.078-.632s-.642.317-1.992.405c-.963.062-1.638-.08-1.638-.08m-.517-3.44s.615.125 1.76-.123c1.112-.242 1.59-.665 1.59-.665s.105.325.167.575c.058.233.148.573.148.573s-.45.442-1.67.682c-1.198.238-1.793.075-1.793.075s-.057-.32-.097-.557c-.048-.27-.105-.56-.105-.56" style="fill:var(--color22, #c0711f)"/><path fill="#a2672b" d="M17.399 18.03s.568.038 1.67-.377c.963-.363 1.375-.848 1.375-.848l-1.355-2.975-3.247 1.18z" style="fill:var(--color23, #a2672b)"/><path fill="#728137" d="M17.342 14.375s2.51.803 3.617 1.173 1.99.555 1.99.555.348-.69.47-1.285c.083-.395.065-1.015.235-1.003.28.02.483.495.495 1.14.01.555-.135 1.38-.135 1.38l1.173.32s.302-.435.472-1.127c.178-.725.088-1 .265-1.05.198-.055.57.202.5 1.347-.042.698-.16 1.095-.125 1.123.058.045.623.255 1.135.4.513.142 1.038.235 1.038.235s.927-4.18-1.663-5.868c-3.24-2.112-7.405-.225-7.405-.225l3.053-2.41s-.22-.545-.488-.96c-.305-.475-.712-.777-.635-.885.105-.15.735-.15 1.273.35.452.423.795.86.81.873l.897-.648s-.087-.587-.325-.96c-.23-.362-.58-.7-.492-.75.185-.105.76.077 1.122.43.313.305.565.777.565.777l1.825-1.25s-1.332-2.112-4.142-2.01-4.328 1.907-4.8 2.44c-.473.532-1.005 1.682-1.005 1.682l.052-3.187s-.437-.1-.857-.15c-.633-.075-1.073.055-1.083-.008-.032-.223.363-.548.985-.68.61-.128 1.103-.053 1.103-.053l.515-2.98s-1.148-.093-2.428.515c-.827.393-1.787 1.072-2.425 2.175-1.412 2.438-.05 5.062-.05 5.062s-1.995-2.075-5.312-1.292c-3.638.857-4.555 4.85-4.35 4.85.555 0 2.58.095 2.683.012.053-.04.192-.602.525-1.11.33-.507.772-.935 1.135-.935.188 0-.065.378-.287.923-.225.555-.35 1.172-.35 1.172h1.805s.38-1.827 1.015-1.957c.272-.055.087.532.02.982-.07.465-.11.978-.11.978l2.285.072s-2.938.178-4.975 2.038c-2.107 1.92-2.328 4.59-2.143 5.922s.37 1.948.492 2.01c.122.063 1.825-1.825 1.887-1.97.063-.142-.267-.76-.267-1.58s.185-1.23.347-1.25c.165-.02.123.575.245 1.088.13.537.328.985.41 1.025s1.083-1.228 1.083-1.228-.17-.48-.225-.947c-.055-.468-.008-.973.127-1.065.148-.103.273.432.448.89.14.365.207.49.287.587l1.81-1.722s-1.46 2.332-1.27 4.655c.21 2.597 2.01 3.57 2.113 3.547.102-.02 1.312-2.79 1.312-2.79s-.427-.392-.745-.985c-.4-.747-.39-1.32-.24-1.415.21-.132.513.698.82 1.068s.493.575.555.575.955-1.95.955-1.95-.26-.153-.455-.455c-.165-.255-.312-.695-.172-.96.15-.14.302.222.535.412s.41.285.41.285.942-1.62 1.312-2.38c.373-.767.753-1.59.753-1.59z" style="fill:var(--color24, #728137)"/><path fill="#bdcf47" d="M17.934 15.46c.115-.075.348-1.632.458-2.41.1-.7.345-1.747-.188-1.85-.365-.07-.517.448-.637 1.003-.105.495-.26 1.167-.26 1.167s-.473-.907-.79-1.46c-.23-.4-.725-1.242-1.12-.99-.453.29.037 1.218.315 1.73s.59 1.11.59 1.11-.835-.285-1.323-.435c-.535-.165-1.247-.31-1.347-.022-.175.5.485.75 1.765 1.272 1.272.518 2.342 1.013 2.537.885m-4.902-9.665c-.058 1.02.122 2.505.847 2.34.628-.14-.1-1.102-.092-2.32.01-1.708 1.115-2.115.767-2.482-.282-.3-1.43.805-1.522 2.462M8.809 8.552c.688-.155 1.12-.133 1.135-.298.018-.212-.192-.362-1.082-.317-.818.04-1.643.255-2.442.797a6.5 6.5 0 0 0-1.223 1.075c-.765.88-.88 1.623-.423 1.715.473.095.692-.437 1.05-1.005.86-1.372 2.167-1.782 2.985-1.967M5.867 21.125c.39-.015.378-.387.388-1.35.008-.627-.02-1.442.245-2.247.357-1.083.91-1.77 1.543-2.35a7 7 0 0 1 1.84-1.205c.787-.358.42-.675-.103-.45-.52.225-2.29.867-3.445 2.627-.753 1.145-.94 2.05-.973 3.258-.022.91.24 1.727.505 1.717m5.97-3.7c-.318 0-.9 1.503-.858 3.015.04 1.513.538 2.48.98 2.658.358.142.613-.235.48-.818-.087-.38-.562-.992-.655-1.982-.092-.993.083-2.075.133-2.34.052-.268.132-.533-.08-.533" style="fill:var(--color25, #bdcf47)"/></symbol><symbol id="icon-features2" viewBox="0 0 32 32"><path fill="#fcc11a" d="M9.352 10.487c-2.427 3.12-2.385 8.663.718 11.41 3.522 3.118 8.48 3.085 11.597.218 3.738-3.44 3.523-9.165.218-12.408-3.323-3.26-9.26-3.43-12.533.78" style="fill:var(--color65, #fcc11a)"/><path fill="#fee269" d="M13.249 9.417c-.96-.425-2.01.733-2.468 1.523-.457.792-.882 2.345.093 2.742.975.395 1.675-.275 2.377-1.432.698-1.158 1.095-2.345-.002-2.833" style="fill:var(--color66, #fee269)"/><path fill="#ffa722" d="M15.749 5.067c-.233.435-.155.77.307.88s3.34.577 3.583.593c.352.022.482-.242.44-.55-.045-.308-.748-4.615-.813-5.01s-.482-.79-.88-.262c-.397.528-2.462 4.022-2.637 4.35zm7.45 2.99c-.453.14-.44.418-.198.77s1.913 2.9 2.065 3.078c.155.175.418.22.638-.045.22-.263 2.965-4.113 3.165-4.353.33-.395.132-.812-.373-.682-.385.102-5.012 1.145-5.297 1.232m3.45 7.408c-.325-.185-.748-.133-.858.285s-.592 3.45-.637 3.715.155.527.482.462c.328-.065 4.863-.737 5.165-.812.528-.133.703-.66.155-1.055-.355-.258-4-2.42-4.307-2.595m-3.627 7.185c.35-.188.66-.045.748.352.087.395 1.055 4.44 1.21 5.188.077.375-.353.682-.703.462-.352-.22-4.172-2.882-4.417-3.1-.353-.307-.108-.627.065-.79.35-.332 2.767-1.935 3.097-2.112m-10.638 2.22c-.443-.043-.573.352-.505.702.065.353.725 4.81.77 5.143.065.482.572.682.9.197s2.587-4.1 2.77-4.44c.33-.615.087-.747-.243-.9-.327-.152-3.23-.657-3.692-.702m-6.327-5.12c.308-.505.703-.373.99.11.195.33 1.845 2.55 2 2.79.155.242.22.702-.262.812-.488.113-4.42 1.145-5.035 1.255s-.968-.372-.572-.9c.23-.31 2.705-3.78 2.88-4.067zm-.835-3.825c.563.25.827.16.945-.243.155-.527.615-2.945.638-3.495.015-.357-.133-.702-.683-.615s-4.505.64-5.01.815c-.588.205-.545.85-.155 1.055.463.243 3.868 2.308 4.265 2.483m6.835-9.23c.318-.253.22-.615-.065-.813s-3.815-2.75-4.262-3.1c-.395-.308-.88-.198-.748.505.095.505 1.22 4.925 1.298 5.23.087.353.352.528.66.308.302-.218 2.787-1.865 3.117-2.13" style="fill:var(--color67, #ffa722)"/></symbol><symbol id="icon-features3" viewBox="0 0 32 32"><path fill="#858585" d="m1.549 7.472 8.513-4.058s2.857.635 8.425 2.002c6.482 1.592 7.79 2.172 7.79 2.172l-1.953.538-1.587-.585-12.65-3.027-6.79 3.15-1.49.22zm.672 4.498v4.668c0 .152.105.287.302.302s2.795-.03 2.945-.015.317-.12.317-.392v-4.545s-.905-.68-1.013-.665-2.553.647-2.553.647z" style="fill:var(--color68, #858585)"/><path fill="#b0b0b0" d="M3.326 13.05c-.21.025-.302.15-.302.393s-.03 1.872-.03 2.037.015.333.257.348c.243.015 1.33.03 1.465.015s.242-.165.258-.363c.015-.197 0-1.962 0-2.1 0-.242-.165-.317-.378-.317s-1.03-.043-1.27-.013" style="fill:var(--color69, #b0b0b0)"/><path fill="#858587" d="m25.491 13.315.03-1.555-3.655.015-.03 1.465.905.983h.537l-.085 6.01s-.205.292-.437.512c-.303.288-.8.665-.755 1.6.042.86.89 1.51 1.722 1.51.89 0 1.495-.65 1.525-1.267.03-.62-.212-.645-.347-.665-.213-.03-.378.12-.423.392s-.317.62-.785.513c-.467-.108-.77-.62-.392-1.118.27-.357.785-.467.83-.77.04-.26.01-5.34.002-6.72h.558z" style="fill:var(--color70, #858587)"/><path fill="#f1901b" d="M22.791 17.205c-.188.03-.23.16-.23.333l.002 2.002c0 .115 0 .23.16.245s1.805.015 1.89.015c.13 0 .203-.16.203-.36 0-.202.01-1.89 0-2.005-.015-.187-.188-.23-.333-.245a26 26 0 0 0-1.692.015" style="fill:var(--color71, #f1901b)"/><path fill="#af0c1a" d="M18.636 25.875h11.162v1.733H18.636z" style="fill:var(--color72, #af0c1a)"/><path fill="#dc0d2a" d="m17.294 24.777.03 1.343s13.595.072 13.61.03.03-1.27-.03-1.3c-.057-.03-13.61-.072-13.61-.072zm0 2.323v1.328l13.668.015s.03-1.285-.015-1.285c-.043.002-13.653-.058-13.653-.058" style="fill:var(--color73, #dc0d2a)"/><path fill="#ff510f" d="M20.916 24.517c-.288.132-.248.36-.245.592.01 1.015.057 3.32.057 3.32s.068.333.505.333c.523 0 .563-.348.563-.348v-3.45l1.972-1.635 2.618 1.923s.072 2.987.072 3.16.173.405.578.39c.462-.018.52-.39.52-.39s-.018-3.2-.033-3.465c-.025-.395-.617-.388-.617-.388s-2.888-2.297-3.148-2.31c-.287-.012-2.642 2.175-2.842 2.268" style="fill:var(--color74, #ff510f)"/><path fill="#f3911c" d="M31.101 11.29c-.135-.142-3.98-3.912-4.165-3.912h-13.91s-2.228-3.34-2.513-3.752c-.32-.465-.607-.49-.897-.013l-2.26 3.74s-5.65.072-5.975.047c-.325-.022-.417.14-.417.278 0 .14 0 4.56.07 4.605s5.74.022 5.74.022l-.047 16.85s-.505.01-.853.01-.54.005-.537.27c0 .14-.005.74 0 .95.01.4-.032.605.232.603.232-.003 8.125 0 8.565 0s.44-.278.44-.418v-1.11c0-.23-.207-.325-.37-.325h-.995v-12.8s.858.048 1.783-.092 1.225-1.165 1.387-1.905c.163-.74.118-2.09.118-2.09s14.325.037 14.627-.078c.3-.117.39-.437-.022-.88zM2.334 8.552h1.675l-1.675 1.87zm.915 2.133 1.29-1.462 1.545 1.462zm3.6-.413-1.737-1.72h1.737zm4.91 13.918-1.76 1.78-1.77-1.78zm-3.093-.833 1.385-1.43 1.422 1.412zm1.28-8.17-1.995-1.878h3.837zm2.26-.97v3.1l-1.593-1.5zm-.622 3.913H8.317l1.617-1.627zm.622 1.457v3.145l-1.543-1.503zm-.707-.64-1.522 1.67-1.623-1.64zM8.806 11.21l3.53-2.045v2.045zm1.223-6.283s1.59 2.307 1.55 2.385c-.02.04-.83.01-1.6.005-.725-.003-1.415.022-1.422-.025-.02-.095 1.472-2.365 1.472-2.365M7.934 8.535h3.585l-3.6 2.173zm-.153 5.842 1.502 1.485-1.502 1.53zm0 5.308 1.545 1.558-1.535 1.62zm0 5.407 1.552 1.552-1.552 1.57zm.448 4.08 1.78-1.853 1.818 1.818a280 280 0 0 0-3.598.035m3.977-.98-1.545-1.555 1.545-1.608zm1.06-16.982.015-2.222 2.115 2.227c-1.293-.005-2.13-.005-2.13-.005m3.253-.18-2.505-2.557 5.043-.015zm1.137.19 2.442-2.39 2.55 2.403zm3.308-2.768 5.418-.015-2.675 2.617zm8.235 2.795-4.24-.01 2.273-2.295c.662.672 1.772 1.802 1.947 1.977.253.25.098.328.02.328" style="fill:var(--color75, #f3911c)"/><path fill="#d15116" d="M13.186 12.187s.02 1.672-.02 1.692-6.433-.015-6.553-.055-.117-1.617-.06-1.637 6.633 0 6.633 0" style="fill:var(--color76, #d15116)"/><path fill="#a7d0d6" d="m14.281 12.67.01 1.808 1.59 1.185s.38-.443.552-1.428c.145-.822.065-1.587.065-1.587s-2.192-.008-2.217.022" style="fill:var(--color77, #a7d0d6)"/></symbol><symbol id="icon-features4" viewBox="0 0 32 32"><path fill="#de7541" d="M10.556 10.395V7.74l-.215.012V6.117l2.062-.013v1.61h-.212v1.56z" style="fill:var(--color78, #de7541)"/><path fill="#fff3e1" d="m15.966 7.46-5.218 5.005.245 6.15 10.563-.07-.11-6.51z" style="fill:var(--color79, #fff3e1)"/><path fill="#5f4e47" d="m10.549 18.66.508-.305v-6.008l-.473.343s.053 5.97-.035 5.97m10.502-6.095v5.84l.56.315v-5.938z" style="fill:var(--color80, #5f4e47)"/><path fill="#bda890" d="m16.094 7.805-5.507 5.17-.033-1.403 5.625-5.33 5.438 5.63-.005 1.25z" style="fill:var(--color81, #bda890)"/><path fill="#904625" d="m10.024 11.325-.305.812.85.01s5.435-5.317 5.553-5.322c.142-.005 5.49 5.297 5.49 5.297l.76.005-5.913-6.435-.86-.058z" style="fill:var(--color82, #904625)"/><path fill="#dc7540" d="M8.986 11.732c-.165.158-.07.385.08.398.155.012.887.01.887.01l5.915-5.98s.138-.14.235-.135c.105.005.243.138.243.138l5.972 5.958s.443.01.583.002c.23-.015.277-.277.017-.507-.117-.105-6.045-6.003-6.145-6.108-.295-.305-.44-.482-.72-.473-.28.013-.447.22-.727.478-.088.077-6.298 6.178-6.34 6.22z" style="fill:var(--color83, #dc7540)"/><path fill="#d27857" d="M14.226 18.122s.022-3.555.042-4.382.798-1.49 1.695-1.513c1.148-.027 1.685.665 1.728 1.473.04.807.04 4.42.04 4.42z" style="fill:var(--color44, #d27857)"/><path fill="#ffba02" d="M16.659 15.63c-.007.222.083.402.345.402s.36-.122.378-.362c.017-.215-.133-.403-.378-.388s-.337.19-.345.348" style="fill:var(--color84, #ffba02)"/><path fill="#a6cfd6" d="M15.041 11.197s.017-.952.027-1.405.435-.815.928-.827c.602-.015.922.362.945.805s.017 1.425.017 1.425z" style="fill:var(--color85, #a6cfd6)"/><path fill="#ab5832" d="M2.791 18.407V15.84l-.205.012V14.27l1.995-.013v1.558h-.207v1.51z" style="fill:var(--color48, #ab5832)"/><path fill="#ede0d6" d="m8.296 15.465-5.553 5.33-.007 6.28L13.978 27l.15-6.665z" style="fill:var(--color86, #ede0d6)"/><path fill="#5f4e47" d="m2.529 27.415.55-.045-.007-6.705-.505.365c0 .002-.035 6.297-.038 6.385m11.182-6.518-.038 6.21.633.37V21.13z" style="fill:var(--color80, #5f4e47)"/><path fill="#bcafaa" d="m8.434 15.832-5.875 5.513-.002-1.525 5.965-5.653 5.79 5.995-.005 1.33z" style="fill:var(--color87, #bcafaa)"/><path fill="#7f4935" d="m1.971 19.577-.067.878.655-.005s5.778-5.658 5.903-5.663c.152-.007 5.845 5.658 5.845 5.658l.767.005-6.252-6.865-.915-.06z" style="fill:var(--color88, #7f4935)"/><path fill="#bb8064" d="M.876 20.017c-.175.17-.075.425.083.433.14.005.953.005.953.005l6.29-6.37s.145-.15.25-.145c.112.005.257.147.257.147l6.345 6.363s.473.005.63.01c.203.007.268-.288-.007-.533-.125-.112-6.405-6.427-6.513-6.537-.315-.325-.47-.515-.767-.503s-.475.233-.775.508c-.088.082-6.7 6.577-6.745 6.622z" style="fill:var(--color89, #bb8064)"/><path fill="#865c51" d="M6.444 27.082s.022-4.05.045-4.93.848-1.587 1.805-1.61c1.22-.03 1.795.708 1.838 1.568s.042 4.97.042 4.97z" style="fill:var(--color90, #865c51)"/><path fill="#ffb700" d="M9.034 24.162c-.01.238.088.43.368.43s.382-.132.402-.385c.018-.227-.14-.43-.402-.412s-.36.2-.368.367" style="fill:var(--color91, #ffb700)"/><path fill="#beb4ac" d="m2.529 27.417.547-.485 10.595-.002.635.55z" style="fill:var(--color92, #beb4ac)"/><path fill="#6ca4ae" d="M7.314 19.442s.018-1.015.03-1.495.463-.867.988-.88c.642-.015.982.388 1.005.858.025.47.02 1.517.02 1.517z" style="fill:var(--color93, #6ca4ae)"/><path fill="#ab5832" d="M27.549 18.42v-2.568l-.207.01V14.28l1.995-.01v1.557h-.205v2.76z" style="fill:var(--color48, #ab5832)"/><path fill="#f5e1d1" d="m23.536 15.517-5.553 5.33.36 6.458 10.923.085.105-7.003z" style="fill:var(--color94, #f5e1d1)"/><path fill="#5f4e47" d="m17.756 27.575.555-.21V20.72l-.505.365s.042 6.49-.05 6.49m11.195-6.623.002 6.398.595.292-.002-6.46z" style="fill:var(--color80, #5f4e47)"/><path fill="#d2a67c" d="m23.674 15.885-5.865 5.702-.012-1.715 5.967-5.652 5.788 5.995-.005 1.33z" style="fill:var(--color95, #d2a67c)"/><path fill="#893f2e" d="m17.211 19.63-.105.85.695.022s5.777-5.657 5.902-5.662c.153-.008 5.848 5.64 5.848 5.64l.762.005-6.252-6.848-.915-.06z" style="fill:var(--color96, #893f2e)"/><path fill="#c67260" d="M16.116 20.07c-.153.15-.085.382.092.395.098.007.9.015.9.015l6.333-6.343s.145-.15.25-.145c.112.005.257.148.257.148l6.365 6.345s.49.002.608-.003c.242-.01.322-.24.025-.54-.118-.117-6.435-6.39-6.54-6.5-.315-.325-.47-.515-.768-.502s-.475.232-.775.507c-.09.083-6.7 6.578-6.747 6.623" style="fill:var(--color97, #c67260)"/><path fill="#ab5832" d="M21.686 27.135s.022-4.05.045-4.93.847-1.588 1.805-1.61c1.22-.03 1.795.707 1.837 1.567s.043 4.97.043 4.97z" style="fill:var(--color48, #ab5832)"/><path fill="#feb800" d="M24.276 24.215c-.01.237.087.43.367.43s.383-.133.403-.385c.017-.228-.14-.43-.403-.413s-.362.2-.367.368" style="fill:var(--color98, #feb800)"/><path fill="#d4a37d" d="m17.769 27.577.53-.487 10.655.002.593.548z" style="fill:var(--color99, #d4a37d)"/><path fill="#6ca4ae" d="M22.554 19.495s.018-1.015.03-1.495.463-.868.988-.88c.642-.015.982.387 1.005.857.025.47.02 1.518.02 1.518z" style="fill:var(--color93, #6ca4ae)"/></symbol><symbol id="icon-features5" viewBox="0 0 32 32"><path fill="#04c1ea" d="M4.429 28.343c-.97-.572-2.263-1.637-2.225-3.427.033-1.52 2.182-3.938 7.695-4.863s8.555-.485 11.025-.22 4.012 1.058 4.012 1.058l-2.25 4.542z" style="fill:var(--color100, #04c1ea)"/><path fill="#f5c876" d="m14.206 24.19-5.067 1.345-4.06 1.792s-.505 1.065-.253 1.345 3.977 2.41 10.582 2.435c7.31.028 11.197-1.875 12.542-2.855s-2.66-6.607-2.66-6.607l-3.342-1.375-3.798.367-2.24 1.12z" style="fill:var(--color101, #f5c876)"/><path fill="#f2a159" d="m17.504 23.733 5.662-.3s-.74-1.42-1.012-2.057c-.31-.725-.368-1.143-.368-1.143s.665-.185 1.8.103c1.135.287 5.17 1.582 6.158 4.077.86 2.175-1.81 3.858-1.81 3.858s-1.8-1.228-2.473-1.87c-1.052-1.005-1.622-1.848-1.622-1.848l-6.395.225-.38-.252z" style="fill:var(--color102, #f2a159)"/><path fill="#dcecf6" d="M5.334 24.638c-.715.715.112 1.595.112 1.595s-1.623.365-1.567 1.315c.027.475.673 1.035.952 1.12s.225-.46.615-.84c1.008-.98 4.115-1.205 6.27-1.427s3.04-.968 3.443-1.233c1.065-.7.672-2.682 1.832-3.565 1.865-1.42 6.13-1.225 6.1-1.382s-3.535-.945-6.747.355c-2.148.87-2.108 2.687-3.618 3.192s-6.245-.277-7.392.87" style="fill:var(--color103, #dcecf6)"/><path fill="#ee594a" d="M8.349 25.313c-.453.165-.025.643.185.763.42.24.987.492.987.492s-1.192.905-.862 1.378c.242.347 2.487-.515 2.487-.515.023 0 1.385 1.112 1.965 1.115.433.002.14-1.613.14-1.613s1.823-.387 1.823-.942c0-.433-.905-.308-.905-.308s-5.368-.535-5.82-.37" style="fill:var(--color104, #ee594a)"/><path fill="#f79228" d="M12.211 24.203c-.472-.042-1.342.935-1.342.935s-2.563-.175-2.605.258c-.043.432 1.357.617 1.357.862s-1.13 1.15-1.027 1.438c.102.287 2.34-1.008 2.507-.945s1.863 1.7 2.165 1.42c.26-.24-.007-1.648-.007-1.648s1.727-.41 1.705-.72c-.02-.307-2.178-.535-2.178-.535s-.122-1.025-.575-1.065" style="fill:var(--color105, #f79228)"/><path fill="#4ea4b0" d="m15.404 4.458-1.183-.085 1.205 8.815s1.208 9.933 1.29 10.528c.105.76.293 1.165.963 1.062s.602-.76.56-1.272c-.043-.513-1.115-9.833-1.115-9.833z" style="fill:var(--color106, #4ea4b0)"/><path fill="#ee5948" d="M14.436 2.96s-5.707.625-9.382 4.705c-2.965 3.292-3.447 6.25-3.237 6.282.353.055 1.25-.245 2.23.163s1.55 1.25 1.877 1.25 1.522-.815 3.21-.57c1.685.245 2.827 1.25 3.182 1.25s1.768-1.06 3.943-1.17c1.985-.1 3.317.38 3.59.352s.802-1.71 2.897-2.335 2.788-.112 3.088-.112.462-1.468 1.957-2.04c1.495-.57 2.068-.328 2.393-.38s-1.198-3.695-6.595-6.162c-4.463-2.038-9.153-1.232-9.153-1.232z" style="fill:var(--color107, #ee5948)"/><path fill="#fefefe" d="M14.699 3.373s-3.715 1.112-6.3 5.165c-2.115 3.315-2.147 5.765-2.013 5.9s1.388-.49 2.91-.352c1.523.135 2.808 1.267 2.883 1.007.095-.33.065-3.255.41-5.717.642-4.607 2.142-5.61 2.142-5.61s2 1.34 3.518 5.122c.952 2.373 1.425 4.81 1.622 5.12.088.138.91-1.122 2.62-1.677 1.583-.515 2.965-.118 3.155-.225.19-.11-1.585-3.96-4.547-6.175-3.345-2.507-6.4-2.558-6.4-2.558" style="fill:var(--color108, #fefefe)"/><path fill="#4ea4b0" d="M14.361.978c-.73.1-.497 1.167-.442 1.795.025.277.085 1.342.817 1.285.61-.048.525-.86.47-1.458-.052-.6-.077-1.728-.845-1.623z" style="fill:var(--color106, #4ea4b0)"/></symbol><symbol id="icon-left-line" viewBox="0 0 572 6" fill="none">
  <path d="M571.887 2.88672L569 -3.26633e-05L566.113 2.88672L569 5.77347L571.887 2.88672ZM0 2.88672V3.38672H569V2.88672V2.38672H0V2.88672Z" fill="#6B7A8C" />
</symbol><symbol id="icon-menu" viewBox="0 0 32 32"><path stroke-linecap="round" stroke-width="1.333" d="M6.667 9.333h18.667M6.667 22.667h18.667M6.667 16h18.667"/></symbol><symbol id="icon-right-line" viewBox="0 0 572 6" fill="none">
  <path d="M-6.10352e-05 2.88672L2.88672 -3.26633e-05L5.77344 2.88672L2.88672 5.77347L-6.10352e-05 2.88672ZM571.887 2.88672V3.38672H2.88672V2.88672V2.38672H571.887V2.88672Z" fill="#6B7A8C" />
</symbol></defs></svg>